<mxfile host="app.diagrams.net" modified="2023-10-31T17:36:55.072Z" agent="Mozilla/5.0 (Macintosh; Intel Mac OS X 10_15_7) AppleWebKit/537.36 (KHTML, like Gecko) Chrome/118.0.0.0 Safari/537.36" version="21.8.2" etag="jJNkI6XWP_KeVSs8pp4z" type="github">
  <diagram name="第 1 页" id="UtRuw29SjOKGwfxvPIrn">
    <mxGraphModel>
      <root>
        <mxCell id="0" />
        <mxCell id="1" parent="0" />
      </root>
    </mxGraphModel>
  </diagram>
</mxfile>
